<svg width="582" height="582" viewBox="0 0 582 582" fill="none" xmlns="http://www.w3.org/2000/svg">
<circle cx="291" cy="291" r="225" fill="#497EFA"/>
<mask id="mask0_921_146" style="mask-type:luminance" maskUnits="userSpaceOnUse" x="66" y="66" width="450" height="450">
<circle cx="291" cy="291" r="225" fill="white"/>
</mask>
<g mask="url(#mask0_921_146)">
<path fill-rule="evenodd" clip-rule="evenodd" d="M81.1768 232C87.8042 232 93.1768 237.373 93.1768 244C93.1768 250.627 87.8042 256 81.1768 256H-74.8232C-81.4507 256 -86.8232 250.627 -86.8232 244C-86.8232 237.373 -81.4507 232 -74.8232 232H81.1768ZM301.177 232C307.804 232 313.177 237.373 313.177 244C313.177 250.627 307.804 256 301.177 256H223.177L223.177 256.01C216.781 256.272 211.677 261.54 211.677 268C211.677 274.46 216.781 279.728 223.177 279.99L223.177 280H383.177C389.804 280 395.177 285.373 395.177 292C395.177 298.627 389.804 304 383.177 304H126.177C119.549 304 114.177 298.627 114.177 292C114.177 285.373 119.549 280 126.177 280H175.177C181.804 280 187.177 274.627 187.177 268C187.177 261.373 181.804 256 175.177 256H145.177C138.549 256 133.177 250.627 133.177 244C133.177 237.373 138.549 232 145.177 232H301.177ZM96.1768 328C102.804 328 108.177 333.373 108.177 340C108.177 346.627 102.804 352 96.1768 352H23.1768C16.5493 352 11.1768 346.627 11.1768 340C11.1768 333.373 16.5493 328 23.1768 328H96.1768ZM383.177 328C389.804 328 395.177 333.373 395.177 340C395.177 346.627 389.804 352 383.177 352H310.177C303.549 352 298.177 346.627 298.177 340C298.177 333.373 303.549 328 310.177 328H383.177ZM647.177 340C647.177 333.373 641.804 328 635.177 328H469.177C462.549 328 457.177 333.373 457.177 340C457.177 346.627 462.549 352 469.177 352H635.177C641.804 352 647.177 346.627 647.177 340ZM457.177 256C463.804 256 469.177 261.373 469.177 268C469.177 274.627 463.804 280 457.177 280H448.177C441.549 280 436.177 285.373 436.177 292C436.177 298.627 441.549 304 448.177 304H705.177C711.804 304 717.177 298.627 717.177 292C717.177 285.373 711.804 280 705.177 280H505.177L505.177 279.99C498.781 279.728 493.677 274.46 493.677 268C493.677 261.54 498.781 256.272 505.177 256.01L505.177 256H529.177C535.804 256 541.177 250.627 541.177 244C541.177 237.373 535.804 232 529.177 232H373.177C366.549 232 361.177 237.373 361.177 244C361.177 250.627 366.549 256 373.177 256H457.177ZM755.177 244C755.177 237.373 749.804 232 743.177 232H587.177C580.549 232 575.177 237.373 575.177 244C575.177 250.627 580.549 256 587.177 256H743.177C749.804 256 755.177 250.627 755.177 244Z" fill="#356CEE"/>
</g>
<mask id="mask1_921_146" style="mask-type:luminance" maskUnits="userSpaceOnUse" x="66" y="66" width="450" height="450">
<circle cx="291" cy="291" r="225" fill="white"/>
</mask>
<g mask="url(#mask1_921_146)">
<path opacity="0.4" fill-rule="evenodd" clip-rule="evenodd" d="M81.1768 88C87.8042 88 93.1768 93.3726 93.1768 100C93.1768 106.627 87.8042 112 81.1768 112H-74.8232C-81.4507 112 -86.8232 106.627 -86.8232 100C-86.8232 93.3726 -81.4507 88 -74.8232 88H81.1768ZM301.177 88C307.804 88 313.177 93.3726 313.177 100C313.177 106.627 307.804 112 301.177 112H223.177L223.177 112.01C216.781 112.272 211.677 117.54 211.677 124C211.677 130.46 216.781 135.728 223.177 135.99L223.177 136H383.177C389.804 136 395.177 141.373 395.177 148C395.177 154.627 389.804 160 383.177 160H126.177C119.549 160 114.177 154.627 114.177 148C114.177 141.373 119.549 136 126.177 136H175.177C181.804 136 187.177 130.627 187.177 124C187.177 117.373 181.804 112 175.177 112H145.177C138.549 112 133.177 106.627 133.177 100C133.177 93.3726 138.549 88 145.177 88H301.177ZM96.1768 184C102.804 184 108.177 189.373 108.177 196C108.177 202.627 102.804 208 96.1768 208H23.1768C16.5493 208 11.1768 202.627 11.1768 196C11.1768 189.373 16.5493 184 23.1768 184H96.1768ZM383.177 184C389.804 184 395.177 189.373 395.177 196C395.177 202.627 389.804 208 383.177 208H310.177C303.549 208 298.177 202.627 298.177 196C298.177 189.373 303.549 184 310.177 184H383.177ZM647.177 196C647.177 189.373 641.804 184 635.177 184H469.177C462.549 184 457.177 189.373 457.177 196C457.177 202.627 462.549 208 469.177 208H635.177C641.804 208 647.177 202.627 647.177 196ZM457.177 112C463.804 112 469.177 117.373 469.177 124C469.177 130.627 463.804 136 457.177 136H448.177C441.549 136 436.177 141.373 436.177 148C436.177 154.627 441.549 160 448.177 160H705.177C711.804 160 717.177 154.627 717.177 148C717.177 141.373 711.804 136 705.177 136H505.177L505.177 135.99C498.781 135.728 493.677 130.46 493.677 124C493.677 117.54 498.781 112.272 505.177 112.01L505.177 112H529.177C535.804 112 541.177 106.627 541.177 100C541.177 93.3726 535.804 88 529.177 88H373.177C366.549 88 361.177 93.3726 361.177 100C361.177 106.627 366.549 112 373.177 112H457.177ZM755.177 100C755.177 93.3726 749.804 88 743.177 88H587.177C580.549 88 575.177 93.3726 575.177 100C575.177 106.627 580.549 112 587.177 112H743.177C749.804 112 755.177 106.627 755.177 100Z" fill="#356CEE"/>
</g>
<mask id="mask2_921_146" style="mask-type:luminance" maskUnits="userSpaceOnUse" x="66" y="66" width="450" height="450">
<circle cx="291" cy="291" r="225" fill="white"/>
</mask>
<g mask="url(#mask2_921_146)">
<path opacity="0.4" fill-rule="evenodd" clip-rule="evenodd" d="M81.1768 400C87.8042 400 93.1768 405.373 93.1768 412C93.1768 418.627 87.8042 424 81.1768 424H-74.8232C-81.4507 424 -86.8232 418.627 -86.8232 412C-86.8232 405.373 -81.4507 400 -74.8232 400H81.1768ZM301.177 400C307.804 400 313.177 405.373 313.177 412C313.177 418.627 307.804 424 301.177 424H223.177L223.177 424.01C216.781 424.272 211.677 429.54 211.677 436C211.677 442.46 216.781 447.728 223.177 447.99L223.177 448H383.177C389.804 448 395.177 453.373 395.177 460C395.177 466.627 389.804 472 383.177 472H126.177C119.549 472 114.177 466.627 114.177 460C114.177 453.373 119.549 448 126.177 448H175.177C181.804 448 187.177 442.627 187.177 436C187.177 429.373 181.804 424 175.177 424H145.177C138.549 424 133.177 418.627 133.177 412C133.177 405.373 138.549 400 145.177 400H301.177ZM96.1768 496C102.804 496 108.177 501.373 108.177 508C108.177 514.627 102.804 520 96.1768 520H23.1768C16.5493 520 11.1768 514.627 11.1768 508C11.1768 501.373 16.5493 496 23.1768 496H96.1768ZM383.177 496C389.804 496 395.177 501.373 395.177 508C395.177 514.627 389.804 520 383.177 520H310.177C303.549 520 298.177 514.627 298.177 508C298.177 501.373 303.549 496 310.177 496H383.177ZM647.177 508C647.177 501.373 641.804 496 635.177 496H469.177C462.549 496 457.177 501.373 457.177 508C457.177 514.627 462.549 520 469.177 520H635.177C641.804 520 647.177 514.627 647.177 508ZM457.177 424C463.804 424 469.177 429.373 469.177 436C469.177 442.627 463.804 448 457.177 448H448.177C441.549 448 436.177 453.373 436.177 460C436.177 466.627 441.549 472 448.177 472H705.177C711.804 472 717.177 466.627 717.177 460C717.177 453.373 711.804 448 705.177 448H505.177L505.177 447.99C498.781 447.728 493.677 442.46 493.677 436C493.677 429.54 498.781 424.272 505.177 424.01L505.177 424H529.177C535.804 424 541.177 418.627 541.177 412C541.177 405.373 535.804 400 529.177 400H373.177C366.549 400 361.177 405.373 361.177 412C361.177 418.627 366.549 424 373.177 424H457.177ZM755.177 412C755.177 405.373 749.804 400 743.177 400H587.177C580.549 400 575.177 405.373 575.177 412C575.177 418.627 580.549 424 587.177 424H743.177C749.804 424 755.177 418.627 755.177 412Z" fill="#356CEE"/>
</g>
<mask id="mask3_921_146" style="mask-type:luminance" maskUnits="userSpaceOnUse" x="66" y="66" width="450" height="450">
<circle cx="291" cy="291" r="225" fill="white"/>
</mask>
<g mask="url(#mask3_921_146)">
<path d="M214.177 340C214.177 333.373 208.805 328 202.177 328H183.177C176.55 328 171.177 322.627 171.177 316C171.177 309.373 176.55 304 183.177 304H262.177C268.805 304 274.177 309.373 274.177 316C274.177 322.627 268.805 328 262.177 328H259.177L259.177 328.01C252.782 328.272 247.678 333.54 247.678 340C247.678 346.46 252.782 351.728 259.177 351.99L259.177 352H262.177C268.805 352 274.177 357.373 274.177 364C274.177 370.627 268.805 376 262.177 376H201.177C194.55 376 189.177 370.627 189.177 364C189.177 357.373 194.55 352 201.177 352H202.177C208.805 352 214.177 346.627 214.177 340Z" fill="#2255CA"/>
</g>
<mask id="mask4_921_146" style="mask-type:luminance" maskUnits="userSpaceOnUse" x="66" y="66" width="450" height="450">
<circle cx="291" cy="291" r="225" fill="white"/>
</mask>
<g mask="url(#mask4_921_146)">
<rect opacity="0.0775757" x="291" y="77" width="215.354" height="428" fill="black"/>
</g>
<path d="M291 73C411.398 73 509 170.602 509 291C509 411.398 411.398 509 291 509V73Z" fill="#94D5FF"/>
<mask id="mask5_921_146" style="mask-type:luminance" maskUnits="userSpaceOnUse" x="291" y="73" width="218" height="436">
<path d="M291 73C411.398 73 509 170.602 509 291C509 411.398 411.398 509 291 509V73Z" fill="white"/>
</mask>
<g mask="url(#mask5_921_146)">
<circle cx="291" cy="291" r="211" fill="#2959C9"/>
<circle cx="291" cy="291" r="147" fill="#6593FF"/>
<circle cx="291" cy="291" r="82" fill="#4A7AE9"/>
<circle cx="291" cy="291" r="32" fill="#042570"/>
</g>
</svg>
