<svg width="582" height="582" viewBox="0 0 582 582" fill="none" xmlns="http://www.w3.org/2000/svg">
<circle cx="291" cy="291" r="168" fill="#FF6A45"/>
<mask id="mask0_921_144" style="mask-type:luminance" maskUnits="userSpaceOnUse" x="123" y="123" width="336" height="336">
<circle cx="291" cy="291" r="168" fill="white"/>
</mask>
<g mask="url(#mask0_921_144)">
<path fill-rule="evenodd" clip-rule="evenodd" d="M213 147C219.627 147 225 152.373 225 159C225 165.627 219.627 171 213 171H164C157.373 171 152 176.373 152 183C152 189.627 157.373 195 164 195H291C297.627 195 303 189.627 303 183C303 176.373 297.627 171 291 171H278L277.999 170.99C271.604 170.727 266.5 165.46 266.5 159C266.5 152.54 271.604 147.273 277.999 147.01L278 147H334C340.627 147 346 141.627 346 135C346 128.373 340.627 123 334 123H178C171.373 123 166 128.373 166 135C166 141.627 171.373 147 178 147H213ZM409 183C409 176.373 403.627 171 397 171H392C385.373 171 380 176.373 380 183C380 189.627 385.373 195 392 195H397C403.627 195 409 189.627 409 183Z" fill="#FF9B6B"/>
</g>
<mask id="mask1_921_144" style="mask-type:luminance" maskUnits="userSpaceOnUse" x="123" y="123" width="336" height="336">
<circle cx="291" cy="291" r="168" fill="white"/>
</mask>
<g mask="url(#mask1_921_144)">
<path fill-rule="evenodd" clip-rule="evenodd" d="M320 435C326.627 435 332 440.373 332 447C332 453.627 326.627 459 320 459H271C264.373 459 259 464.373 259 471C259 477.627 264.373 483 271 483H398C404.627 483 410 477.627 410 471C410 464.373 404.627 459 398 459H385L384.999 458.99C378.604 458.727 373.5 453.46 373.5 447C373.5 440.54 378.604 435.273 384.999 435.01L385 435H441C447.627 435 453 429.627 453 423C453 416.373 447.627 411 441 411H285C278.373 411 273 416.373 273 423C273 429.627 278.373 435 285 435H320ZM516 471C516 464.373 510.627 459 504 459H499C492.373 459 487 464.373 487 471C487 477.627 492.373 483 499 483H504C510.627 483 516 477.627 516 471Z" fill="#FF9B6B"/>
</g>
<mask id="mask2_921_144" style="mask-type:luminance" maskUnits="userSpaceOnUse" x="123" y="123" width="336" height="336">
<circle cx="291" cy="291" r="168" fill="white"/>
</mask>
<g mask="url(#mask2_921_144)">
<path fill-rule="evenodd" clip-rule="evenodd" d="M262 195C268.627 195 274 200.373 274 207C274 213.627 268.627 219 262 219H222C215.373 219 210 213.627 210 207C210 200.373 215.373 195 222 195H262ZM386 291C392.627 291 398 296.373 398 303C398 309.627 392.627 315 386 315H235L234.999 315.01C228.604 315.273 223.5 320.54 223.5 327C223.5 333.46 228.604 338.727 234.999 338.99L235 339H254C260.627 339 266 344.373 266 351C266 357.627 260.627 363 254 363H134C127.373 363 122 357.627 122 351C122 344.373 127.373 339 134 339H166C172.627 339 178 333.627 178 327C178 320.373 172.627 315 166 315H102C95.3726 315 90 309.627 90 303C90 296.373 95.3726 291 102 291H386ZM235 399C235 392.373 229.627 387 223 387H203C196.373 387 191 392.373 191 399C191 405.627 196.373 411 203 411H223C229.627 411 235 405.627 235 399ZM352 399C352 392.373 346.627 387 340 387H278C271.373 387 266 392.373 266 399C266 405.627 271.373 411 278 411H340C346.627 411 352 405.627 352 399ZM346 351C346 344.373 340.627 339 334 339H314C307.373 339 302 344.373 302 351C302 357.627 307.373 363 314 363H334C340.627 363 346 357.627 346 351ZM483 207C483 200.373 477.627 195 471 195H431C424.373 195 419 200.373 419 207C419 213.627 424.373 219 431 219H471C477.627 219 483 213.627 483 207Z" fill="#D04237"/>
</g>
<mask id="mask3_921_144" style="mask-type:luminance" maskUnits="userSpaceOnUse" x="123" y="123" width="336" height="336">
<circle cx="291" cy="291" r="168" fill="white"/>
</mask>
<g mask="url(#mask3_921_144)">
<rect opacity="0.0775757" x="292" y="107" width="184" height="368" fill="black"/>
</g>
<path d="M292 130C380.918 130 453 202.082 453 291C453 379.918 380.918 452 292 452V130Z" fill="#97271E"/>
<mask id="mask4_921_144" style="mask-type:luminance" maskUnits="userSpaceOnUse" x="292" y="130" width="161" height="322">
<path d="M292 130C380.918 130 453 202.082 453 291C453 379.918 380.918 452 292 452V130Z" fill="white"/>
</mask>
<g mask="url(#mask4_921_144)">
<circle cx="293" cy="291" r="154" fill="#DC5D1C"/>
<circle cx="293" cy="291" r="79" fill="#F8A053"/>
<circle cx="293" cy="291" r="54" fill="#FFCA79"/>
<circle cx="293" cy="292" r="40" fill="#FFF5C6"/>
</g>
</svg>
