<svg width="582" height="582" viewBox="0 0 582 582" fill="none" xmlns="http://www.w3.org/2000/svg">
<circle cx="291" cy="291" r="225" fill="#545BFE"/>
<mask id="mask0_921_142" style="mask-type:luminance" maskUnits="userSpaceOnUse" x="66" y="66" width="450" height="450">
<circle cx="291" cy="291" r="225" fill="white"/>
</mask>
<g mask="url(#mask0_921_142)">
<path fill-rule="evenodd" clip-rule="evenodd" d="M254 93C254 86.3726 248.627 81 242 81H37C30.3726 81 25 86.3726 25 93C25 99.6274 30.3726 105 37 105H85C91.6274 105 97 110.373 97 117C97 123.627 91.6274 129 85 129H79C72.3726 129 67 134.373 67 141C67 147.627 72.3726 153 79 153H75C81.6274 153 87 158.373 87 165C87 171.627 81.6274 177 75 177H65C58.3726 177 53 182.373 53 189C53 195.627 58.3726 201 65 201H184C190.627 201 196 195.627 196 189C196 182.373 190.627 177 184 177H179L179 176.99C172.605 176.728 167.5 171.46 167.5 165C167.5 158.54 172.605 153.272 179 153.01L179 153H248C254.627 153 260 147.627 260 141C260 134.373 254.627 129 248 129H241L241 128.99C234.605 128.728 229.5 123.46 229.5 117C229.5 110.54 234.605 105.273 241 105.01L241 105H242C248.627 105 254 99.6274 254 93ZM164 225C170.627 225 176 230.373 176 237C176 243.627 170.627 249 164 249C157.373 249 152 243.627 152 237C152 230.373 157.373 225 164 225ZM127 261C127 254.373 121.627 249 115 249H80C73.3726 249 68 254.373 68 261C68 267.627 73.3726 273 80 273H115C121.627 273 127 267.627 127 261ZM212 405C212 411.627 206.627 417 200 417H205C198.373 417 193 422.373 193 429C193 435.627 198.373 441 205 441H234C240.627 441 246 435.627 246 429C246 422.373 240.627 417 234 417H238V416.99C231.605 416.728 226.5 411.46 226.5 405C226.5 398.54 231.605 393.272 238 393.01V393H265C271.627 393 277 387.627 277 381C277 374.373 271.627 369 265 369L265 368.99C258.605 368.728 253.5 363.46 253.5 357C253.5 350.54 258.605 345.272 265 345.01L265 345H271C277.627 345 283 339.627 283 333C283 326.373 277.627 321 271 321H220V320.99C213.605 320.727 208.5 315.46 208.5 309C208.5 302.54 213.605 297.273 220 297.01V297H218C224.627 297 230 291.627 230 285C230 278.373 224.627 273 218 273H169C162.373 273 157 278.373 157 285C157 291.627 162.373 297 169 297C175.627 297 181 302.373 181 309C181 315.627 175.627 321 169 321C162.373 321 157 326.373 157 333C157 339.627 162.373 345 169 345H179C185.627 345 191 350.373 191 357C191 363.627 185.627 369 179 369H181C174.373 369 169 374.373 169 381C169 387.627 174.373 393 181 393H200C206.627 393 212 398.373 212 405Z" fill="#4FCDF9"/>
</g>
<mask id="mask1_921_142" style="mask-type:luminance" maskUnits="userSpaceOnUse" x="66" y="66" width="450" height="450">
<circle cx="291" cy="291" r="225" fill="white"/>
</mask>
<g mask="url(#mask1_921_142)">
<path fill-rule="evenodd" clip-rule="evenodd" d="M488 117C488 110.373 482.627 105 476 105H452C445.373 105 440 110.373 440 117C440 123.627 445.373 129 452 129H476C482.627 129 488 123.627 488 117ZM726 129C732.627 129 738 134.373 738 141C738 147.627 732.627 153 726 153H719V153.01C712.605 153.272 707.5 158.54 707.5 165C707.5 171.46 712.605 176.728 719 176.99V177H735C741.627 177 747 182.373 747 189C747 195.627 741.627 201 735 201H561C554.373 201 549 195.627 549 189C549 182.373 554.373 177 561 177H556C562.627 177 568 171.627 568 165C568 158.373 562.627 153 556 153H515C508.373 153 503 147.627 503 141C503 134.373 508.373 129 515 129H726ZM456 393C462.627 393 468 387.627 468 381C468 374.373 462.627 369 456 369C449.373 369 444 363.627 444 357C444 350.373 449.373 345 456 345H453C459.627 345 465 339.627 465 333C465 326.373 459.627 321 453 321H408C401.373 321 396 315.627 396 309C396 302.373 401.373 297 408 297C414.627 297 420 291.627 420 285C420 278.373 414.627 273 408 273H374C367.373 273 362 267.627 362 261C362 254.373 367.373 249 374 249H400C406.627 249 412 243.627 412 237C412 230.373 406.627 225 400 225C393.373 225 388 219.627 388 213C388 206.373 393.373 201 400 201H456C462.627 201 468 206.373 468 213C468 219.627 462.627 225 456 225L455.999 225.01C449.604 225.273 444.5 230.54 444.5 237C444.5 243.46 449.604 248.727 455.999 248.99L456 249H547C553.627 249 559 254.373 559 261C559 267.627 553.627 273 547 273H527L527 273.01C520.605 273.273 515.5 278.54 515.5 285C515.5 291.46 520.605 296.727 527 296.99L527 297H537C543.627 297 549 302.373 549 309C549 315.627 543.627 321 537 321H522L521.999 321.01C515.604 321.273 510.5 326.54 510.5 333C510.5 339.46 515.604 344.727 521.999 344.99L522 345H520C526.627 345 532 350.373 532 357C532 363.627 526.627 369 520 369H500L500 369.01C493.605 369.272 488.5 374.54 488.5 381C488.5 387.46 493.605 392.728 500 392.99L500 393H496C502.627 393 508 398.373 508 405C508 411.627 502.627 417 496 417H460C453.373 417 448 411.627 448 405C448 398.373 453.373 393 460 393H456ZM546 369C552.627 369 558 374.373 558 381C558 387.627 552.627 393 546 393C539.373 393 534 387.627 534 381C534 374.373 539.373 369 546 369ZM540 213C540 206.373 534.627 201 528 201H514C507.373 201 502 206.373 502 213C502 219.627 507.373 225 514 225H528C534.627 225 540 219.627 540 213ZM437 165C437 158.373 431.627 153 425 153H401C394.373 153 389 158.373 389 165C389 171.627 394.373 177 401 177H425C431.627 177 437 171.627 437 165ZM463 153C469.627 153 475 158.373 475 165C475 171.627 469.627 177 463 177H460C453.373 177 448 171.627 448 165C448 158.373 453.373 153 460 153H463Z" fill="#4FCDF9"/>
</g>
<mask id="mask2_921_142" style="mask-type:luminance" maskUnits="userSpaceOnUse" x="66" y="66" width="450" height="450">
<circle cx="291" cy="291" r="225" fill="white"/>
</mask>
<g mask="url(#mask2_921_142)">
<path fill-rule="evenodd" clip-rule="evenodd" d="M373 117C373 110.373 367.627 105 361 105H241C234.373 105 229 99.6274 229 93C229 86.3726 234.373 81 241 81H290C296.627 81 302 75.6274 302 69C302 62.3726 296.627 57 290 57H274C267.373 57 262 51.6274 262 45C262 38.3726 267.373 33 274 33H336C342.627 33 348 38.3726 348 45C348 51.6274 342.627 57 336 57H338L338 57.0102C331.605 57.2721 326.5 62.5399 326.5 69C326.5 75.4601 331.605 80.7279 338 80.9898L338 81H498C504.627 81 510 86.3726 510 93C510 99.6274 504.627 105 498 105H430L429.999 105.01C423.604 105.273 418.5 110.54 418.5 117C418.5 123.46 423.604 128.727 429.999 128.99L430 129H433C439.627 129 445 134.373 445 141C445 147.627 439.627 153 433 153H357C350.373 153 345 147.627 345 141C345 134.373 350.373 129 357 129H361C367.627 129 373 123.627 373 117ZM479 177C485.627 177 491 182.373 491 189C491 195.627 485.627 201 479 201H417C410.373 201 405 195.627 405 189C405 182.373 410.373 177 417 177H479ZM513 141C513 134.373 507.627 129 501 129H481C474.373 129 469 134.373 469 141C469 147.627 474.373 153 481 153H501C507.627 153 513 147.627 513 141ZM309 129C315.627 129 321 134.373 321 141C321 147.627 315.627 153 309 153H289C282.373 153 277 147.627 277 141C277 134.373 282.373 129 289 129H309ZM552 45C552 38.3726 546.627 33 540 33H384C377.373 33 372 38.3726 372 45C372 51.6274 377.373 57 384 57H540C546.627 57 552 51.6274 552 45Z" fill="white"/>
</g>
<mask id="mask3_921_142" style="mask-type:luminance" maskUnits="userSpaceOnUse" x="66" y="66" width="450" height="450">
<circle cx="291" cy="291" r="225" fill="white"/>
</mask>
<g mask="url(#mask3_921_142)">
<path fill-rule="evenodd" clip-rule="evenodd" d="M151 417C157.627 417 163 422.373 163 429C163 435.627 157.627 441 151 441H147C140.373 441 135 446.373 135 453C135 459.627 140.373 465 147 465H223C229.627 465 235 459.627 235 453C235 446.373 229.627 441 223 441H220L219.999 440.99C213.604 440.727 208.5 435.46 208.5 429C208.5 422.54 213.604 417.273 219.999 417.01L220 417H246C252.627 417 258 411.627 258 405C258 398.373 252.627 393 246 393H232L232 392.99C225.605 392.728 220.5 387.46 220.5 381C220.5 374.54 225.605 369.272 232 369.01L232 369H279C285.627 369 291 363.627 291 357C291 350.373 285.627 345 279 345H161C154.373 345 149 350.373 149 357C149 363.627 154.373 369 161 369H184C190.627 369 196 374.373 196 381C196 387.627 190.627 393 184 393H83C76.3726 393 71 398.373 71 405C71 411.627 76.3726 417 83 417H151ZM326 405C326 398.373 320.627 393 314 393H294C287.373 393 282 398.373 282 405C282 411.627 287.373 417 294 417H314C320.627 417 326 411.627 326 405Z" fill="white"/>
</g>
<mask id="mask4_921_142" style="mask-type:luminance" maskUnits="userSpaceOnUse" x="66" y="66" width="450" height="450">
<circle cx="291" cy="291" r="225" fill="white"/>
</mask>
<g mask="url(#mask4_921_142)">
<path fill-rule="evenodd" clip-rule="evenodd" d="M403 513C409.627 513 415 518.373 415 525C415 531.627 409.627 537 403 537H399C392.373 537 387 542.373 387 549C387 555.627 392.373 561 399 561H475C481.627 561 487 555.627 487 549C487 542.373 481.627 537 475 537H472L471.999 536.99C465.604 536.727 460.5 531.46 460.5 525C460.5 518.54 465.604 513.273 471.999 513.01L472 513H498C504.627 513 510 507.627 510 501C510 494.373 504.627 489 498 489H484L484 488.99C477.605 488.728 472.5 483.46 472.5 477C472.5 470.54 477.605 465.272 484 465.01L484 465H531C537.627 465 543 459.627 543 453C543 446.373 537.627 441 531 441H413C406.373 441 401 446.373 401 453C401 459.627 406.373 465 413 465H436C442.627 465 448 470.373 448 477C448 483.627 442.627 489 436 489H335C328.373 489 323 494.373 323 501C323 507.627 328.373 513 335 513H403ZM578 501C578 494.373 572.627 489 566 489H546C539.373 489 534 494.373 534 501C534 507.627 539.373 513 546 513H566C572.627 513 578 507.627 578 501Z" fill="white"/>
</g>
<mask id="mask5_921_142" style="mask-type:luminance" maskUnits="userSpaceOnUse" x="66" y="66" width="450" height="450">
<circle cx="291" cy="291" r="225" fill="white"/>
</mask>
<g mask="url(#mask5_921_142)">
<rect opacity="0.0775757" x="291.483" y="41" width="250.484" height="500" fill="black"/>
</g>
<path d="M291 73C411.398 73 509 170.602 509 291C509 411.398 411.398 509 291 509V73Z" fill="#2A2D80"/>
<mask id="mask6_921_142" style="mask-type:luminance" maskUnits="userSpaceOnUse" x="291" y="73" width="218" height="436">
<path d="M291 73C411.398 73 509 170.602 509 291C509 411.398 411.398 509 291 509V73Z" fill="white"/>
</mask>
<g mask="url(#mask6_921_142)">
<circle cx="292.5" cy="292.5" r="208.5" fill="#952525"/>
<circle cx="293" cy="291" r="178" fill="#E0592F"/>
<circle cx="293" cy="291" r="107" fill="#F89035"/>
<circle cx="292" cy="292" r="51" fill="#FFF1AA"/>
</g>
</svg>
