<svg width="582" height="582" viewBox="0 0 582 582" fill="none" xmlns="http://www.w3.org/2000/svg">
<g clip-path="url(#clip0_921_151)">
<path d="M571.763 571.762C571.884 571.649 572.004 571.534 572.121 571.416C600.824 542.711 498.411 393.759 343.373 238.721C188.336 83.6839 39.3836 -18.7295 10.6781 9.97371C10.5609 10.0909 10.4457 10.2102 10.3329 10.3314L55.857 55.8556C55.9691 55.7335 56.083 55.613 56.2002 55.4958C80.2509 31.4474 205.049 117.253 334.945 247.149C464.841 377.045 550.647 501.844 526.599 525.894C526.482 526.012 526.361 526.126 526.239 526.238L571.763 571.762ZM514.494 514.492C537.379 491.606 455.734 372.855 332.133 249.254C208.533 125.654 89.7817 44.0084 66.8952 66.8937L84.7462 84.7447C84.8573 84.6223 84.971 84.502 85.088 84.385C106.229 63.2448 215.735 138.475 329.677 252.417C443.619 366.36 518.85 475.866 497.71 497.007C497.593 497.124 497.472 497.237 497.35 497.348L514.494 514.492Z" fill="#B87D43"/>
<circle cx="291.047" cy="275.048" r="208" fill="#FCCB6B"/>
<mask id="mask0_921_151" style="mask-type:luminance" maskUnits="userSpaceOnUse" x="83" y="67" width="417" height="417">
<circle cx="291.047" cy="275.048" r="208" fill="white"/>
</mask>
<g mask="url(#mask0_921_151)">
<path fill-rule="evenodd" clip-rule="evenodd" d="M497.416 475.52C492.73 470.833 485.132 470.833 480.445 475.52C475.759 480.206 475.759 487.804 480.445 492.49L590.754 602.799C595.44 607.485 603.038 607.485 607.725 602.799C612.411 598.113 612.411 590.515 607.725 585.828L497.416 475.52ZM341.853 319.956C337.166 315.27 329.568 315.27 324.882 319.956C320.196 324.643 320.196 332.241 324.882 336.927L380.036 392.081L380.029 392.088C384.366 396.796 384.251 404.13 379.683 408.698C375.115 413.266 367.78 413.381 363.073 409.044L363.066 409.052L249.929 295.915C245.242 291.228 237.644 291.228 232.958 295.915C228.272 300.601 228.272 308.199 232.958 312.885L414.685 494.612C419.371 499.298 426.969 499.298 431.655 494.612C436.341 489.925 436.341 482.327 431.655 477.641L397.007 442.993C392.321 438.307 392.321 430.709 397.007 426.022C401.693 421.336 409.291 421.336 413.977 426.022L435.191 447.236C439.877 451.922 447.475 451.922 452.161 447.236C456.847 442.549 456.847 434.951 452.161 430.265L341.853 319.956ZM418.927 532.795C414.241 528.109 406.643 528.109 401.957 532.795C397.27 537.482 397.27 545.08 401.957 549.766L453.575 601.385C458.262 606.071 465.86 606.071 470.546 601.385C475.232 596.698 475.232 589.101 470.546 584.414L418.927 532.795ZM215.988 329.856C211.301 325.17 203.703 325.169 199.017 329.856C194.331 334.542 194.331 342.14 199.017 346.826L250.636 398.445C255.322 403.131 262.92 403.131 267.606 398.445C272.293 393.759 272.293 386.161 267.606 381.475L215.988 329.856ZM20.8261 151.665C25.5124 146.979 33.1103 146.979 37.7966 151.665L155.176 269.045C159.863 273.731 159.863 281.329 155.176 286.015C150.49 290.701 142.892 290.701 138.206 286.015L20.8261 168.635C16.1398 163.949 16.1398 156.351 20.8261 151.665ZM214.573 226.618C209.887 221.932 202.289 221.932 197.603 226.618C192.916 231.304 192.916 238.902 197.603 243.589L203.967 249.953C208.653 254.639 208.653 262.237 203.967 266.923C199.28 271.61 191.682 271.61 186.996 266.923L5.26971 85.1968C0.583404 80.5105 0.58342 72.9126 5.26971 68.2263C9.956 63.54 17.554 63.54 22.2403 68.2263L163.662 209.648L163.669 209.64C168.376 213.977 175.711 213.862 180.279 209.294C184.847 204.726 184.962 197.392 180.625 192.684L180.632 192.677L163.662 175.707C158.975 171.02 158.975 163.422 163.662 158.736C168.348 154.05 175.946 154.05 180.632 158.736L290.941 269.045C295.627 273.731 295.627 281.329 290.941 286.015C286.255 290.701 278.657 290.701 273.97 286.015L214.573 226.618ZM12.3408 7.4151C17.0271 2.72881 24.625 2.72879 29.3113 7.4151L139.62 117.724C144.306 122.41 144.306 130.008 139.62 134.694C134.934 139.381 127.336 139.381 122.649 134.694L12.3408 24.3857C7.65447 19.6994 7.65449 12.1014 12.3408 7.4151Z" fill="#ECB55A"/>
</g>
<mask id="mask1_921_151" style="mask-type:luminance" maskUnits="userSpaceOnUse" x="83" y="67" width="417" height="417">
<circle cx="291.047" cy="275.048" r="208" fill="white"/>
</mask>
<g mask="url(#mask1_921_151)">
<rect opacity="0.0775757" x="291.047" y="67.0481" width="209.089" height="416" fill="black"/>
</g>
<path d="M291.047 73.0481C402.609 73.0481 493.047 163.487 493.047 275.048C493.047 386.61 402.609 477.048 291.047 477.048V73.0481Z" fill="#9C4925"/>
<mask id="mask2_921_151" style="mask-type:luminance" maskUnits="userSpaceOnUse" x="291" y="73" width="203" height="405">
<path d="M291.047 73.0481C402.609 73.0481 493.047 163.487 493.047 275.048C493.047 386.61 402.609 477.048 291.047 477.048V73.0481Z" fill="white"/>
</mask>
<g mask="url(#mask2_921_151)">
<circle cx="292.047" cy="275.048" r="114" fill="#E09B7F"/>
<circle cx="291.547" cy="275.548" r="34.5" fill="#FFEECC"/>
</g>
<path d="M571.762 571.763C571.649 571.884 571.534 572.003 571.416 572.121C542.711 600.824 393.759 498.41 238.721 343.373C83.6839 188.336 -18.7295 39.3834 9.97371 10.6779C10.0909 10.5607 10.2102 10.4455 10.3314 10.3326L55.8556 55.8568C55.7335 55.9688 55.613 56.0827 55.4958 56.2C31.4474 80.2506 117.253 205.049 247.149 334.945C377.045 464.841 501.844 550.647 525.894 526.599C526.012 526.481 526.126 526.361 526.238 526.239L571.762 571.763ZM514.492 514.494C491.606 537.379 372.855 455.734 249.254 332.133C125.654 208.533 44.0084 89.7815 66.8937 66.895L84.7447 84.746C84.6223 84.8571 84.502 84.9707 84.385 85.0878C63.2448 106.228 138.475 215.735 252.417 329.677C366.36 443.619 475.866 518.85 497.007 497.709C497.124 497.592 497.237 497.472 497.348 497.35L514.492 514.494Z" fill="#B87D43"/>
</g>
<defs>
<clipPath id="clip0_921_151">
<rect width="582" height="582" fill="white"/>
</clipPath>
</defs>
</svg>
