<svg width="582" height="582" viewBox="0 0 582 582" fill="none" xmlns="http://www.w3.org/2000/svg">
<circle cx="291" cy="291" r="229" fill="#65F0D5"/>
<mask id="mask0_921_148" style="mask-type:luminance" maskUnits="userSpaceOnUse" x="62" y="62" width="458" height="458">
<circle cx="291" cy="291" r="229" fill="white"/>
</mask>
<g mask="url(#mask0_921_148)">
<path fill-rule="evenodd" clip-rule="evenodd" d="M507.12 -88C507.12 -81.3726 501.748 -76 495.12 -76C488.493 -76 483.12 -81.3726 483.12 -88V-244C483.12 -250.627 488.493 -256 495.12 -256C501.748 -256 507.12 -250.627 507.12 -244V-88ZM507.12 132C507.12 138.627 501.748 144 495.12 144C488.493 144 483.12 138.627 483.12 132V54L483.11 54.0004C482.848 47.6047 477.58 42.5 471.12 42.5C464.66 42.5 459.392 47.6047 459.13 54.0004L459.12 54V214C459.12 220.627 453.748 226 447.12 226C440.493 226 435.12 220.627 435.12 214V-43C435.12 -49.6274 440.493 -55 447.12 -55C453.748 -55 459.12 -49.6274 459.12 -43V6C459.12 12.6274 464.493 18 471.12 18C477.748 18 483.12 12.6274 483.12 6V-24C483.12 -30.6274 488.493 -36 495.12 -36C501.748 -36 507.12 -30.6274 507.12 -24V132ZM411.12 -73C411.12 -66.3726 405.748 -61 399.12 -61C392.493 -61 387.12 -66.3726 387.12 -73V-146C387.12 -152.627 392.493 -158 399.12 -158C405.748 -158 411.12 -152.627 411.12 -146V-73ZM411.12 214C411.12 220.627 405.748 226 399.12 226C392.493 226 387.12 220.627 387.12 214V141C387.12 134.373 392.493 129 399.12 129C405.748 129 411.12 134.373 411.12 141V214ZM399.12 478C405.748 478 411.12 472.627 411.12 466L411.12 300C411.12 293.373 405.748 288 399.12 288C392.493 288 387.12 293.373 387.12 300L387.12 466C387.12 472.627 392.493 478 399.12 478ZM483.12 288C483.12 294.627 477.748 300 471.12 300C464.493 300 459.12 294.627 459.12 288V279C459.12 272.373 453.748 267 447.12 267C440.493 267 435.12 272.373 435.12 279L435.12 536C435.12 542.627 440.493 548 447.12 548C453.748 548 459.12 542.627 459.12 536V336L459.13 336C459.392 329.605 464.66 324.5 471.12 324.5C477.58 324.5 482.848 329.605 483.11 336L483.12 336V360C483.12 366.627 488.493 372 495.12 372C501.748 372 507.12 366.627 507.12 360L507.12 204C507.12 197.373 501.748 192 495.12 192C488.493 192 483.12 197.373 483.12 204L483.12 288ZM495.12 586C501.748 586 507.12 580.627 507.12 574V418C507.12 411.373 501.748 406 495.12 406C488.493 406 483.12 411.373 483.12 418V574C483.12 580.627 488.493 586 495.12 586Z" fill="#49CBC2"/>
</g>
<mask id="mask1_921_148" style="mask-type:luminance" maskUnits="userSpaceOnUse" x="62" y="62" width="458" height="458">
<circle cx="291" cy="291" r="229" fill="white"/>
</mask>
<g mask="url(#mask1_921_148)">
<path fill-rule="evenodd" clip-rule="evenodd" d="M243.12 -158C243.12 -151.373 248.493 -146 255.12 -146C261.748 -146 267.12 -151.373 267.12 -158V-314C267.12 -320.627 261.748 -326 255.12 -326C248.493 -326 243.12 -320.627 243.12 -314V-158ZM243.12 62C243.12 68.6274 248.493 74 255.12 74C261.748 74 267.12 68.6274 267.12 62V-16L267.13 -15.9996C267.392 -22.3953 272.66 -27.5 279.12 -27.5C285.58 -27.5 290.848 -22.3953 291.11 -15.9996L291.12 -16V144C291.12 150.627 296.493 156 303.12 156C309.748 156 315.12 150.627 315.12 144V-113C315.12 -119.627 309.748 -125 303.12 -125C296.493 -125 291.12 -119.627 291.12 -113V-64C291.12 -57.3726 285.748 -52 279.12 -52C272.493 -52 267.12 -57.3726 267.12 -64V-94C267.12 -100.627 261.748 -106 255.12 -106C248.493 -106 243.12 -100.627 243.12 -94L243.12 62ZM339.12 -143C339.12 -136.373 344.493 -131 351.12 -131C357.748 -131 363.12 -136.373 363.12 -143V-216C363.12 -222.627 357.748 -228 351.12 -228C344.493 -228 339.12 -222.627 339.12 -216V-143ZM339.12 144C339.12 150.627 344.493 156 351.12 156C357.748 156 363.12 150.627 363.12 144V71C363.12 64.3726 357.748 59 351.12 59C344.493 59 339.12 64.3726 339.12 71V144ZM351.12 408C344.493 408 339.12 402.627 339.12 396L339.12 230C339.12 223.373 344.493 218 351.12 218C357.748 218 363.12 223.373 363.12 230L363.12 396C363.12 402.627 357.748 408 351.12 408ZM267.12 218C267.12 224.627 272.493 230 279.12 230C285.748 230 291.12 224.627 291.12 218V209C291.12 202.373 296.493 197 303.12 197C309.748 197 315.12 202.373 315.12 209L315.12 466C315.12 472.627 309.748 478 303.12 478C296.493 478 291.12 472.627 291.12 466V266L291.11 266C290.848 259.605 285.58 254.5 279.12 254.5C272.66 254.5 267.392 259.605 267.13 266L267.12 266V290C267.12 296.627 261.748 302 255.12 302C248.493 302 243.12 296.627 243.12 290V134C243.12 127.373 248.493 122 255.12 122C261.748 122 267.12 127.373 267.12 134L267.12 218ZM255.12 516C248.493 516 243.12 510.627 243.12 504L243.12 348C243.12 341.373 248.493 336 255.12 336C261.748 336 267.12 341.373 267.12 348V504C267.12 510.627 261.748 516 255.12 516Z" fill="#50DECD"/>
</g>
<mask id="mask2_921_148" style="mask-type:luminance" maskUnits="userSpaceOnUse" x="62" y="62" width="458" height="458">
<circle cx="291" cy="291" r="229" fill="white"/>
</mask>
<g mask="url(#mask2_921_148)">
<path fill-rule="evenodd" clip-rule="evenodd" d="M219.12 -191C219.12 -184.373 213.748 -179 207.12 -179C200.493 -179 195.12 -184.373 195.12 -191V-347C195.12 -353.627 200.493 -359 207.12 -359C213.748 -359 219.12 -353.627 219.12 -347V-191ZM219.12 29C219.12 35.6274 213.748 41 207.12 41C200.493 41 195.12 35.6274 195.12 29V-49L195.11 -48.9996C194.848 -55.3953 189.58 -60.5 183.12 -60.5C176.66 -60.5 171.392 -55.3953 171.13 -48.9996L171.12 -49V111C171.12 117.627 165.748 123 159.12 123C152.493 123 147.12 117.627 147.12 111L147.12 -146C147.12 -152.627 152.493 -158 159.12 -158C165.748 -158 171.12 -152.627 171.12 -146V-97C171.12 -90.3726 176.493 -85 183.12 -85C189.748 -85 195.12 -90.3726 195.12 -97L195.12 -127C195.12 -133.627 200.493 -139 207.12 -139C213.748 -139 219.12 -133.627 219.12 -127L219.12 29ZM123.12 -176C123.12 -169.373 117.748 -164 111.12 -164C104.493 -164 99.1201 -169.373 99.1201 -176L99.1201 -249C99.1201 -255.627 104.493 -261 111.12 -261C117.748 -261 123.12 -255.627 123.12 -249L123.12 -176ZM123.12 111C123.12 117.627 117.748 123 111.12 123C104.493 123 99.1201 117.627 99.1201 111V38C99.1201 31.3726 104.493 26 111.12 26C117.748 26 123.12 31.3726 123.12 38V111ZM111.12 375C117.748 375 123.12 369.627 123.12 363L123.12 197C123.12 190.373 117.748 185 111.12 185C104.493 185 99.1201 190.373 99.1201 197L99.1201 363C99.1201 369.627 104.493 375 111.12 375ZM195.12 185C195.12 191.627 189.748 197 183.12 197C176.493 197 171.12 191.627 171.12 185V176C171.12 169.373 165.748 164 159.12 164C152.493 164 147.12 169.373 147.12 176L147.12 433C147.12 439.627 152.493 445 159.12 445C165.748 445 171.12 439.627 171.12 433L171.12 233L171.13 233C171.392 226.605 176.66 221.5 183.12 221.5C189.58 221.5 194.848 226.605 195.11 233L195.12 233V257C195.12 263.627 200.493 269 207.12 269C213.748 269 219.12 263.627 219.12 257V101C219.12 94.3726 213.748 89 207.12 89C200.493 89 195.12 94.3726 195.12 101V185ZM207.12 483C213.748 483 219.12 477.627 219.12 471L219.12 315C219.12 308.373 213.748 303 207.12 303C200.493 303 195.12 308.373 195.12 315V471C195.12 477.627 200.493 483 207.12 483Z" fill="#77FFF5"/>
</g>
<mask id="mask3_921_148" style="mask-type:luminance" maskUnits="userSpaceOnUse" x="62" y="62" width="458" height="458">
<circle cx="291" cy="291" r="229" fill="white"/>
</mask>
<g mask="url(#mask3_921_148)">
<rect opacity="0.0775757" x="291" y="62" width="229" height="458" fill="black"/>
</g>
<path d="M291 70C413.055 70 512 168.945 512 291C512 413.055 413.055 512 291 512V70Z" fill="#138B83"/>
<mask id="mask4_921_148" style="mask-type:luminance" maskUnits="userSpaceOnUse" x="291" y="70" width="221" height="442">
<path d="M291 70C413.055 70 512 168.945 512 291C512 413.055 413.055 512 291 512V70Z" fill="white"/>
</mask>
<g mask="url(#mask4_921_148)">
<circle cx="292" cy="291" r="145" fill="#1BB9AE"/>
<circle cx="290.5" cy="291.5" r="32.5" fill="#06504C"/>
</g>
</svg>
