<svg width="582" height="582" viewBox="0 0 582 582" fill="none" xmlns="http://www.w3.org/2000/svg">
<circle cx="291" cy="291" r="200" fill="#F7CC7F"/>
<mask id="mask0_921_102" style="mask-type:luminance" maskUnits="userSpaceOnUse" x="91" y="91" width="400" height="400">
<circle cx="291" cy="291" r="200" fill="white"/>
</mask>
<g mask="url(#mask0_921_102)">
<path fill-rule="evenodd" clip-rule="evenodd" d="M400 126C400 119.373 394.627 114 388 114H131C124.373 114 119 119.373 119 126C119 132.627 124.373 138 131 138H251C257.627 138 263 143.373 263 150C263 156.627 257.627 162 251 162H247C240.373 162 235 167.373 235 174C235 180.627 240.373 186 247 186H323C329.627 186 335 180.627 335 174C335 167.373 329.627 162 323 162H320L319.999 161.99C313.604 161.727 308.5 156.46 308.5 150C308.5 143.54 313.604 138.273 319.999 138.01L320 138H388C394.627 138 400 132.627 400 126ZM381 222C381 215.373 375.627 210 369 210H307C300.373 210 295 215.373 295 222C295 228.627 300.373 234 307 234H369C375.627 234 381 228.627 381 222ZM81.5 258C88.1274 258 93.5 263.373 93.5 270C93.5 276.627 88.1274 282 81.5 282H37.5C30.8726 282 25.5 276.627 25.5 270C25.5 263.373 30.8726 258 37.5 258H81.5ZM393 270C393 263.373 387.627 258 381 258H150C143.373 258 138 263.373 138 270C138 276.627 143.373 282 150 282H220C226.627 282 232 287.373 232 294C232 300.627 226.627 306 220 306H211C204.373 306 199 311.373 199 318C199 324.627 204.373 330 211 330H353C359.627 330 365 335.373 365 342C365 348.627 359.627 354 353 354H347C340.373 354 335 359.373 335 366C335 372.627 340.373 378 347 378H423C429.627 378 435 372.627 435 366C435 359.373 429.627 354 423 354H422L421.999 353.99C415.604 353.727 410.5 348.46 410.5 342C410.5 335.54 415.604 330.273 421.999 330.01L422 330H442C448.627 330 454 324.627 454 318C454 311.373 448.627 306 442 306H362V305.99C355.605 305.727 350.5 300.46 350.5 294C350.5 287.54 355.605 282.273 362 282.01V282H381C387.627 282 393 276.627 393 270ZM413 414C413 407.373 407.627 402 401 402H170C163.373 402 158 407.373 158 414C158 420.627 163.373 426 170 426H211C217.627 426 223 431.373 223 438C223 444.627 217.627 450 211 450H207C200.373 450 195 455.373 195 462C195 468.627 200.373 474 207 474H283C289.627 474 295 468.627 295 462C295 455.373 289.627 450 283 450H280L279.999 449.99C273.604 449.727 268.5 444.46 268.5 438C268.5 431.54 273.604 426.273 279.999 426.01L280 426H401C407.627 426 413 420.627 413 414ZM208 354C214.627 354 220 359.373 220 366C220 372.627 214.627 378 208 378H132C125.373 378 120 372.627 120 366C120 359.373 125.373 354 132 354H208ZM546 318C546 311.373 540.627 306 534 306H493C486.373 306 481 311.373 481 318C481 324.627 486.373 330 493 330H534C540.627 330 546 324.627 546 318ZM230 210C236.627 210 242 215.373 242 222C242 228.627 236.627 234 230 234H210C203.373 234 198 228.627 198 222C198 215.373 203.373 210 210 210H230ZM391 162C397.627 162 403 167.373 403 174C403 180.627 397.627 186 391 186H371C364.373 186 359 180.627 359 174C359 167.373 364.373 162 371 162H391ZM211 174C211 167.373 205.627 162 199 162H179C172.373 162 167 167.373 167 174C167 180.627 172.373 186 179 186H199C205.627 186 211 180.627 211 174Z" fill="#FFE6AE"/>
</g>
<mask id="mask1_921_102" style="mask-type:luminance" maskUnits="userSpaceOnUse" x="91" y="91" width="400" height="400">
<circle cx="291" cy="291" r="200" fill="white"/>
</mask>
<g mask="url(#mask1_921_102)">
<path fill-rule="evenodd" clip-rule="evenodd" d="M178 282C184.627 282 190 287.373 190 294C190 300.627 184.627 306 178 306H174C167.373 306 162 311.373 162 318C162 324.627 167.373 330 174 330H250C256.627 330 262 324.627 262 318C262 311.373 256.627 306 250 306H247L246.999 305.99C240.604 305.727 235.5 300.46 235.5 294C235.5 287.54 240.604 282.273 246.999 282.01L247 282H315C321.627 282 327 276.627 327 270C327 263.373 321.627 258 315 258H155L155 257.99C148.605 257.728 143.5 252.46 143.5 246C143.5 239.54 148.605 234.272 155 234.01L155 234H233C239.627 234 245 228.627 245 222C245 215.373 239.627 210 233 210H77C70.3726 210 65 215.373 65 222C65 228.627 70.3726 234 77 234H107C113.627 234 119 239.373 119 246C119 252.627 113.627 258 107 258H93C86.3726 258 81 263.373 81 270C81 276.627 86.3726 282 93 282H178ZM308 366C308 359.373 302.627 354 296 354H234C227.373 354 222 359.373 222 366C222 372.627 227.373 378 234 378H296C302.627 378 308 372.627 308 366ZM318 306C324.627 306 330 311.373 330 318C330 324.627 324.627 330 318 330H298C291.373 330 286 324.627 286 318C286 311.373 291.373 306 298 306H318ZM506 318C506 311.373 500.627 306 494 306H393C386.373 306 381 311.373 381 318C381 324.627 386.373 330 393 330H494C500.627 330 506 324.627 506 318ZM126 306C132.627 306 138 311.373 138 318C138 324.627 132.627 330 126 330H106C99.3726 330 94 324.627 94 318C94 311.373 99.3726 306 106 306H126ZM451 270C451 263.373 445.627 258 439 258H419C412.373 258 407 263.373 407 270C407 276.627 412.373 282 419 282H439C445.627 282 451 276.627 451 270Z" fill="#E29F58"/>
</g>
<mask id="mask2_921_102" style="mask-type:luminance" maskUnits="userSpaceOnUse" x="91" y="91" width="400" height="400">
<circle cx="291" cy="291" r="200" fill="white"/>
</mask>
<g mask="url(#mask2_921_102)">
<rect opacity="0.0775757" x="292" y="66" width="225" height="450" fill="black"/>
</g>
<path d="M292 98C398.591 98 485 184.409 485 291C485 397.591 398.591 484 292 484V98Z" fill="#C08240"/>
<mask id="mask3_921_102" style="mask-type:luminance" maskUnits="userSpaceOnUse" x="292" y="98" width="193" height="386">
<path d="M292 98C398.591 98 485 184.409 485 291C485 397.591 398.591 484 292 484V98Z" fill="white"/>
</mask>
<g mask="url(#mask3_921_102)">
<circle cx="293" cy="292" r="185" fill="#A34D28"/>
<circle cx="293" cy="291" r="83" fill="#FAD14C"/>
</g>
</svg>
